<?xml version="1.0" encoding="UTF-8"?>
<svg id="Layer_1" data-name="Layer 1" xmlns="http://www.w3.org/2000/svg" viewBox="0 0 394.78 125.63">
  <defs>
    <style>
      .cls-1 {
        fill: #010101;
      }

      .cls-1, .cls-2 {
        stroke: #010101;
        stroke-miterlimit: 10;
        strokeWidth: 1.91px;
      }

      .cls-2 {
        fill: #f2ead9;
      }
    </style>
  </defs>
  <g>
    <path class="cls-1" d="m263.96,39.17c4.58,0,7.54-2.69,8.49-6.2,1.08,2.69,4.31,4.58,7.81,4.58,5.79,0,9.43-4.45,9.43-10.64,0-4.04-1.48-8.08-3.91-10.78-1.48-1.62-3.1-2.42-4.58-2.42-2.16,0-4.04,1.48-3.91,3.23,2.56,1.75,4.45,5.25,4.45,8.62,0,2.16-.94,3.5-2.83,3.5-2.96,0-3.64-3.23-4.45-6.87-.4-2.02-1.08-2.42-2.69-2.42-2.56,0-3.64,1.48-3.64,2.83,0,.67.27,2.16.27,3.64,0,2.83-1.08,4.31-3.1,4.31-2.16,0-3.64-1.62-3.64-5.12,0-2.83.94-5.39,2.02-6.74-.67-1.48-1.75-2.56-3.37-2.56-3.1,0-6.47,4.31-6.47,11.05,0,7.54,4.18,11.99,10.1,11.99Z"/>
    <path class="cls-1" d="m369.71,106.76c-5.52,0-9.43,3.23-9.43,9.16,0,2.16.54,4.72,1.75,7.01,2.16,1.08,4.85,1.75,7.27,1.75,5.93,0,9.16-3.5,9.16-9.3,0-2.16-.54-4.58-1.48-7.01-2.29-.94-4.85-1.62-7.27-1.62Z"/>
    <path class="cls-1" d="m381.7,44.25c-9.16.27-13.61,5.12-13.61,9.97,0,2.02.94,4.58,2.16,7.41,1.89,3.91,2.83,6.87,2.83,9.57,0,6.6-4.45,10.51-17.51,10.51h-30.57c-9.43,0-13.61-4.18-13.61-16.57v-7.19c-1.08-.81-3.5-1.75-6.06-1.75-5.52,0-9.16,3.23-9.16,8.22.14,5.66.4,2.88.4,7.86,0,6.74-2.29,9.43-7.01,9.43-6.06,0-9.16-3.91-9.16-15.36v-8.62c-1.08-.81-3.5-1.62-6.2-1.62-5.25,0-8.89,3.1-8.89,7.68,0,3.23.13,6.2.13,9.3,0,5.66-2.29,8.62-7.54,8.62-6.6,0-9.83-4.18-9.83-15.49v-8.49c-1.08-.81-3.64-1.75-6.2-1.75-5.66,0-9.03,3.37-9.03,7.95,0,2.96.27,6.06.27,8.89,0,5.93-2.83,8.89-10.91,8.89h-21.01c-.94,0-1.89-.13-2.56-.27,1.08-3.23,1.62-6.87,1.62-10.91,0-17.51-11.32-30.58-26.81-30.58-11.99,0-22.63,7.14-27.62,19.53V9.9c-.94-.54-3.5-1.08-5.79-1.08-6.87,0-10.91,4.45-10.51,14.15l-.11,58.74h-18.44c.32-1.74.49-3.5.49-5.25,0-10.78-5.93-17.92-26.27-30.85l-36.11-22.9c-4.71.54-8.49,4.58-8.49,9.3,0,3.23,1.62,5.66,5.66,8.08l5.66,3.5c-7.54,3.91-12.13,11.59-12.13,19.53,0,6.06,2.44,12.91,5.95,18.44-4.2.72-18.94.43-28.36.26V9.63c-1.48-.54-3.77-.94-6.2-.94C4.44,8.68.82,12.02.96,23.06l.1,77.74H.12s.94,0,.94,0l9.24-.13c.08.01.17.02.25.02,13.34,0,40.43,1.22,49.83-5.66,7.41,4.72,16.17,7.68,24.79,7.68,4.1,0,7.73-.73,10.87-2.02h67.01c11.05,0,19.53-2.16,25.73-6.33,3.23,4.45,7.81,6.33,12.66,6.33h20.74s0,0,0,0c10.24,0,16.97-3.64,20.07-10.51,2.02,6.6,8.22,10.51,15.63,10.51,7.95,0,13.88-4.04,16.44-10.51,2.02,6.6,7.81,10.51,16.03,10.51,7.41,0,12.8-4.04,15.22-11.05,3.64,7.95,9.7,11.05,19.4,11.05,0,0,0,0,0,0h30.44c21.29,0,32.6-11.45,32.6-30.31,0-9.3-2.29-18.73-6.33-26.14ZM61.88,77.93c-5.66-3.64-9.57-8.76-9.57-14.55s4.45-10.37,10.51-10.37,10.24,4.18,10.24,10.37-3.91,11.18-11.18,14.55Zm14.15,6.87c6.2-4.98,9.43-12.39,9.57-20.34,9.16,5.66,12.93,7.95,12.93,13.61s-3.64,9.3-10.64,9.3c-4.18,0-8.22-.94-11.86-2.56Zm90.95-3.1h-21.13c2.83-14.82,12.92-23.71,24.23-23.71,9.16,0,14.82,5.52,14.82,12.8s-5.93,10.91-17.92,10.91Z"/>
  </g>
  <g>
    <path class="cls-2" d="m269.76,31.44c4.58,0,7.54-2.69,8.49-6.2,1.08,2.69,4.31,4.58,7.81,4.58,5.79,0,9.43-4.45,9.43-10.64,0-4.04-1.48-8.08-3.91-10.78-1.48-1.62-3.1-2.42-4.58-2.42-2.16,0-4.04,1.48-3.91,3.23,2.56,1.75,4.45,5.25,4.45,8.62,0,2.16-.94,3.5-2.83,3.5-2.96,0-3.64-3.23-4.45-6.87-.4-2.02-1.08-2.42-2.69-2.42-2.56,0-3.64,1.48-3.64,2.83,0,.67.27,2.16.27,3.64,0,2.83-1.08,4.31-3.1,4.31-2.16,0-3.64-1.62-3.64-5.12,0-2.83.94-5.39,2.02-6.74-.67-1.48-1.75-2.56-3.37-2.56-3.1,0-6.47,4.31-6.47,11.05,0,7.54,4.18,11.99,10.1,11.99Z"/>
    <path class="cls-2" d="m375.51,99.03c-5.52,0-9.43,3.23-9.43,9.16,0,2.16.54,4.72,1.75,7.01,2.16,1.08,4.85,1.75,7.27,1.75,5.93,0,9.16-3.5,9.16-9.3,0-2.16-.54-4.58-1.48-7.01-2.29-.94-4.85-1.62-7.27-1.62Z"/>
    <path class="cls-2" d="m387.5,36.52c-9.16.27-13.61,5.12-13.61,9.97,0,2.02.94,4.58,2.16,7.41,1.89,3.91,2.83,6.87,2.83,9.57,0,6.6-4.45,10.51-17.51,10.51h-30.57c-9.43,0-13.61-4.18-13.61-16.57v-7.19c-1.08-.81-3.5-1.75-6.06-1.75-5.52,0-9.16,3.23-9.16,8.22.14,5.66.4,2.88.4,7.86,0,6.74-2.29,9.43-7.01,9.43-6.06,0-9.16-3.91-9.16-15.36v-8.62c-1.08-.81-3.5-1.62-6.2-1.62-5.25,0-8.89,3.1-8.89,7.68,0,3.23.13,6.2.13,9.3,0,5.66-2.29,8.62-7.54,8.62-6.6,0-9.83-4.18-9.83-15.49v-8.49c-1.08-.81-3.64-1.75-6.2-1.75-5.66,0-9.03,3.37-9.03,7.95,0,2.96.27,6.06.27,8.89,0,5.93-2.83,8.89-10.91,8.89h-21.01c-.94,0-1.89-.13-2.56-.27,1.08-3.23,1.62-6.87,1.62-10.91,0-17.51-11.32-30.58-26.81-30.58-11.99,0-22.63,7.14-27.62,19.53V2.17c-.94-.54-3.5-1.08-5.79-1.08-6.87,0-10.91,4.45-10.51,14.15l-.11,58.74h-18.44c.32-1.74.49-3.5.49-5.25,0-10.78-5.93-17.92-26.27-30.85L54.88,14.97c-4.71.54-8.49,4.58-8.49,9.3,0,3.23,1.62,5.66,5.66,8.08l5.66,3.5c-7.54,3.91-12.13,11.59-12.13,19.53,0,6.06,2.44,12.91,5.95,18.44-4.2.72-18.94.43-28.36.26V1.9c-1.48-.54-3.77-.94-6.2-.94-6.74,0-10.35,3.33-10.21,14.38l.1,77.74h-.94s.94,0,.94,0l9.24-.13c.08.01.17.02.25.02,13.34,0,40.43,1.22,49.83-5.66,7.41,4.72,16.17,7.68,24.79,7.68,4.1,0,7.73-.73,10.87-2.02h67.01c11.05,0,19.53-2.16,25.73-6.33,3.23,4.45,7.81,6.33,12.66,6.33h20.74s0,0,0,0c10.24,0,16.97-3.64,20.07-10.51,2.02,6.6,8.22,10.51,15.63,10.51,7.95,0,13.88-4.04,16.44-10.51,2.02,6.6,7.81,10.51,16.03,10.51,7.41,0,12.8-4.04,15.22-11.05,3.64,7.95,9.7,11.05,19.4,11.05,0,0,0,0,0,0h30.44c21.29,0,32.6-11.45,32.6-30.31,0-9.3-2.29-18.73-6.33-26.14ZM67.68,70.2c-5.66-3.64-9.57-8.76-9.57-14.55s4.45-10.37,10.51-10.37,10.24,4.18,10.24,10.37-3.91,11.18-11.18,14.55Zm14.15,6.87c6.2-4.98,9.43-12.39,9.57-20.34,9.16,5.66,12.93,7.95,12.93,13.61s-3.64,9.3-10.64,9.3c-4.18,0-8.22-.94-11.86-2.56Zm90.95-3.1h-21.13c2.83-14.82,12.92-23.71,24.23-23.71,9.16,0,14.82,5.52,14.82,12.8s-5.93,10.91-17.92,10.91Z"/>
  </g>
</svg>